<?xml version="1.0" encoding="UTF-8" standalone="no"?><!DOCTYPE svg PUBLIC "-//W3C//DTD SVG 1.1//EN" "http://www.w3.org/Graphics/SVG/1.1/DTD/svg11.dtd"><svg width="100%" height="100%" viewBox="0 0 1920 1080" version="1.1" xmlns="http://www.w3.org/2000/svg" xmlns:xlink="http://www.w3.org/1999/xlink" xml:space="preserve" xmlns:serif="http://www.serif.com/" style="fill-rule:evenodd;clip-rule:evenodd;stroke-linejoin:round;stroke-miterlimit:1.41421;"><path d="M-6,-19.923l1936.42,0l0,1099.92c-495.351,-262.461 -776.841,-124.166 -1093.01,-36.678c-278.765,77.136 -561.78,-154.838 -843.183,-134.506c0,0 -0.08,0.467 -0.227,1.356l0,-930.095Z" style="fill:url(#_Linear1);"/><g id="buble"><path d="M456.766,872.44c-0.144,0.713 0.016,1.457 0.437,2.054c0.426,0.595 1.079,0.986 1.804,1.081c15.077,1.796 29.754,-6.384 36.041,-20.439c7.874,-17.602 -0.023,-38.281 -17.624,-46.154c-17.602,-7.874 -38.281,0.023 -46.155,17.624c-3.404,7.611 -3.963,16.157 -1.632,24.101c0.213,0.683 0.698,1.249 1.34,1.561c0.639,0.311 1.381,0.344 2.048,0.089c0.025,0.011 0.043,0.005 0.061,-0.002c1.292,-0.494 1.977,-1.902 1.57,-3.22c-1.967,-6.72 -1.484,-13.949 1.397,-20.389c6.692,-14.961 24.27,-21.673 39.231,-14.981c14.961,6.692 21.673,24.271 14.981,39.231c-5.338,11.934 -17.79,18.882 -30.581,17.366c-1.366,-0.178 -2.63,0.732 -2.904,2.079l-0.014,-0.001Z" style="fill:#cce5ff;"/><path d="M435.482,857.358c-0.625,0.373 -1.069,0.987 -1.223,1.7c-0.153,0.709 -0.007,1.452 0.402,2.054c3.085,4.31 7.097,7.873 11.745,10.416c0.633,0.333 1.375,0.391 2.053,0.156c0.676,-0.231 1.226,-0.737 1.518,-1.389c0.022,-0.005 0.028,-0.017 0.035,-0.034c0.563,-1.258 0.055,-2.741 -1.164,-3.391c-3.91,-2.133 -7.282,-5.131 -9.866,-8.758c-0.777,-1.125 -2.29,-1.453 -3.465,-0.753c-0.017,-0.008 -0.027,-0.007 -0.035,-0.001Z" style="fill:#cce5ff;"/></g><g id="buble1" serif:id="buble"><path d="M125.656,194.599c-0.935,-0.293 -1.955,-0.181 -2.812,0.3c-0.856,0.489 -1.471,1.309 -1.698,2.267c-4.494,19.951 4.432,40.745 22.392,51.114c22.49,12.985 51.287,5.269 64.272,-17.222c12.985,-22.49 5.269,-51.287 -17.221,-64.272c-9.726,-5.615 -21.096,-7.546 -32.062,-5.523c-0.945,0.191 -1.77,0.761 -2.277,1.579c-0.505,0.812 -0.652,1.803 -0.403,2.732c-0.018,0.031 -0.012,0.056 -0.005,0.082c0.482,1.799 2.274,2.911 4.096,2.548c9.275,-1.705 18.893,-0.057 27.122,4.694c19.116,11.037 25.675,35.516 14.638,54.632c-11.036,19.116 -35.515,25.675 -54.631,14.638c-15.249,-8.803 -22.833,-26.446 -19.031,-43.373c0.427,-1.805 -0.617,-3.624 -2.384,-4.178l0.004,-0.018Z" style="fill:#cce5ff;"/><path d="M148.807,168.173c-0.413,-0.889 -1.174,-1.569 -2.108,-1.875c-0.928,-0.303 -1.944,-0.21 -2.806,0.254c-6.202,3.537 -11.531,8.418 -15.581,14.293c-0.534,0.802 -0.714,1.788 -0.493,2.729c0.215,0.938 0.817,1.745 1.65,2.226c0.004,0.03 0.02,0.04 0.041,0.052c1.608,0.928 3.665,0.453 4.704,-1.09c3.398,-4.943 7.883,-9.046 13.099,-12.004c1.615,-0.886 2.264,-2.867 1.489,-4.539c0.012,-0.021 0.013,-0.035 0.005,-0.046Z" style="fill:#cce5ff;"/></g><g id="buble2" serif:id="buble"><path d="M1659.48,829.929c0.543,0.816 1.405,1.37 2.375,1.536c0.972,0.158 1.966,-0.092 2.746,-0.693c16.047,-12.676 22.197,-34.455 14.765,-53.815c-9.307,-24.245 -36.542,-36.371 -60.787,-27.064c-24.245,9.307 -36.371,36.542 -27.064,60.787c4.024,10.484 11.645,19.141 21.441,24.469c0.854,0.447 1.854,0.522 2.763,0.206c0.903,-0.314 1.641,-0.991 2.032,-1.869c0.034,-0.013 0.045,-0.037 0.055,-0.061c0.758,-1.702 0.066,-3.693 -1.579,-4.558c-8.281,-4.512 -14.718,-11.845 -18.123,-20.716c-7.911,-20.608 2.397,-43.759 23.004,-51.669c20.607,-7.911 43.759,2.397 51.669,23.004c6.31,16.438 1.101,34.922 -12.506,45.684c-1.467,1.134 -1.801,3.204 -0.776,4.747l-0.015,0.012Z" style="fill:#cce5ff;"/><path d="M1624.86,835.896c-0.239,0.951 -0.075,1.958 0.458,2.784c0.531,0.819 1.379,1.386 2.341,1.568c7.045,1.155 14.259,0.715 21.103,-1.302c0.92,-0.287 1.68,-0.94 2.101,-1.81c0.423,-0.865 0.463,-1.871 0.118,-2.769c0.016,-0.026 0.01,-0.043 0.001,-0.066c-0.665,-1.733 -2.562,-2.658 -4.342,-2.113c-5.751,1.702 -11.818,2.069 -17.734,1.085c-1.813,-0.328 -3.563,0.804 -4.013,2.59c-0.023,0.009 -0.032,0.019 -0.033,0.033Z" style="fill:#cce5ff;"/></g><path d="M1883,-73.846c0,0 -331.101,331.1 -425.551,425.551c-13.739,13.739 -13.739,36.013 0,49.752c0.001,0.001 0.001,0.001 0.002,0.002c6.509,6.509 15.336,10.165 24.541,10.165c9.205,0 18.032,-3.656 24.541,-10.165c93.999,-93.999 425.886,-425.886 425.886,-425.886l-49.419,-49.419Z" style="fill:url(#_Linear2);"/><path d="M2078,-70.846c0,0 -331.101,331.1 -425.551,425.551c-13.739,13.739 -13.739,36.013 0,49.752c0.001,0.001 0.001,0.001 0.002,0.002c6.509,6.509 15.336,10.165 24.541,10.165c9.205,0 18.032,-3.656 24.541,-10.165c93.999,-93.999 425.886,-425.886 425.886,-425.886l-49.419,-49.419Z" style="fill:url(#_Linear3);"/><path d="M1881,-269.846c0,0 -331.101,331.1 -425.551,425.551c-13.739,13.739 -13.739,36.013 0,49.752c0.001,0.001 0.001,0.001 0.002,0.002c6.509,6.509 15.336,10.165 24.541,10.165c9.205,0 18.032,-3.656 24.541,-10.165c93.999,-93.999 425.886,-425.886 425.886,-425.886l-49.419,-49.419Z" style="fill:url(#_Linear4);"/><defs><linearGradient id="_Linear1" x1="0" y1="0" x2="1" y2="0" gradientUnits="userSpaceOnUse" gradientTransform="matrix(1936.42,-1099.92,1089.24,1955.42,-6,1080)"><stop offset="0" style="stop-color:#112d37;stop-opacity:1"/><stop offset="0.5" style="stop-color:#0f142a;stop-opacity:1"/><stop offset="1" style="stop-color:#0e0c25;stop-opacity:1"/></linearGradient><linearGradient id="_Linear2" x1="0" y1="0" x2="1" y2="0" gradientUnits="userSpaceOnUse" gradientTransform="matrix(450.427,-450.427,49.4191,49.4191,1457.29,401.29)"><stop offset="0" style="stop-color:#112c37;stop-opacity:1"/><stop offset="0.54" style="stop-color:#0f162b;stop-opacity:1"/><stop offset="1" style="stop-color:#0e0d26;stop-opacity:1"/></linearGradient><linearGradient id="_Linear3" x1="0" y1="0" x2="1" y2="0" gradientUnits="userSpaceOnUse" gradientTransform="matrix(401.008,-499.846,341.221,-165.509,1677,429)"><stop offset="0" style="stop-color:#112d37;stop-opacity:1"/><stop offset="0.46" style="stop-color:#0f1329;stop-opacity:1"/><stop offset="1" style="stop-color:#0e0c25;stop-opacity:1"/></linearGradient><linearGradient id="_Linear4" x1="0" y1="0" x2="1" y2="0" gradientUnits="userSpaceOnUse" gradientTransform="matrix(401.008,-499.846,341.221,-165.509,1480,230)"><stop offset="0" style="stop-color:#112d37;stop-opacity:1"/><stop offset="0.45" style="stop-color:#0f1329;stop-opacity:1"/><stop offset="1" style="stop-color:#0e0c25;stop-opacity:1"/></linearGradient></defs></svg>